# xmcd
#
# Track frame offsets:
#	150
#	11731
#	26750
#	45342
#	61243
#	80978
#	95682
#	113725
#	129536
#	144861
#	148225
#	162569
#
# Disc length: 2374 seconds
#
# Revision: 1
# Processed by: cddbd v1.5.2PL0 Copyright (c) Steve Scherf et al.
# Submitted via: audiograbber 1.83.01
#
DISCID=a809440c
DTITLE=Crankshaft and the Gear Grinders - What You Gonna Do?
DYEAR=2013
DGENRE=Blues
TTITLE0=When the Sun Goes Down
TTITLE1=Boomtown
TTITLE2=Dancin' In the Dark
TTITLE3=Trail Of Tears
TTITLE4=King Pin
TTITLE5=I Wanna Play
TTITLE6=Waiting For Me
TTITLE7=Earthquake Shake
TTITLE8=Let Me Love You
TTITLE9=Don't Leave
TTITLE10=Fill It Up
TTITLE11=Barkin' Up the Wrong Tree
EXTD=
EXTT0=
EXTT1=
EXTT2=
EXTT3=
EXTT4=
EXTT5=
EXTT6=
EXTT7=
EXTT8=
EXTT9=
EXTT10=
EXTT11=
PLAYORDER=
